<svg width="60" height="60" viewBox="0 0 60 60" fill="none" xmlns="http://www.w3.org/2000/svg">
<path d="M41.13 27.87C41.4031 28.1553 41.6172 28.4917 41.76 28.86C42.0601 29.5904 42.0601 30.4096 41.76 31.14C41.6172 31.5082 41.4031 31.8447 41.13 32.13L32.13 41.13C31.5651 41.6949 30.7989 42.0123 30 42.0123C29.2011 42.0123 28.4349 41.6949 27.87 41.13C27.3051 40.5651 26.9877 39.7989 26.9877 39C26.9877 38.2011 27.3051 37.4349 27.87 36.87L31.77 33H21C20.2044 33 19.4413 32.6839 18.8787 32.1213C18.3161 31.5587 18 30.7956 18 30C18 29.2043 18.3161 28.4413 18.8787 27.8787C19.4413 27.3161 20.2044 27 21 27H31.77L27.87 23.13C27.5888 22.8511 27.3656 22.5193 27.2133 22.1537C27.061 21.7881 26.9826 21.396 26.9826 21C26.9826 20.604 27.061 20.2118 27.2133 19.8463C27.3656 19.4807 27.5888 19.1489 27.87 18.87C28.1489 18.5888 28.4807 18.3656 28.8463 18.2133C29.2119 18.061 29.604 17.9826 30 17.9826C30.396 17.9826 30.7882 18.061 31.1537 18.2133C31.5193 18.3656 31.8511 18.5888 32.13 18.87L41.13 27.87ZM60 30C60 35.9334 58.2405 41.7336 54.9441 46.6671C51.6476 51.6006 46.9623 55.4457 41.4805 57.7164C35.9987 59.987 29.9667 60.5811 24.1473 59.4235C18.3279 58.266 12.9824 55.4088 8.78681 51.2132C4.59124 47.0176 1.73401 41.6721 0.576458 35.8527C-0.581097 30.0333 0.0130005 24.0013 2.28363 18.5195C4.55426 13.0377 8.39944 8.35235 13.3329 5.05591C18.2664 1.75947 24.0666 0 30 0C33.9397 0 37.8407 0.775973 41.4805 2.28361C45.1203 3.79125 48.4274 6.00104 51.2132 8.78679C56.8393 14.4129 60 22.0435 60 30ZM6.00002 30C6.00002 34.7467 7.40759 39.3869 10.0447 43.3337C12.6819 47.2804 16.4302 50.3566 20.8156 52.1731C25.201 53.9896 30.0266 54.4649 34.6822 53.5388C39.3377 52.6128 43.6141 50.327 46.9706 46.9706C50.327 43.6141 52.6128 39.3377 53.5388 34.6822C54.4649 30.0266 53.9896 25.201 52.1731 20.8156C50.3566 16.4302 47.2805 12.6819 43.3337 10.0447C39.3869 7.40757 34.7468 6 30 6C23.6348 6 17.5303 8.52856 13.0294 13.0294C8.52858 17.5303 6.00002 23.6348 6.00002 30Z" fill="#8B5CF6"/>
</svg>
